#!OML:ASF F:\VICON\USERDATA\INSTALL\rory3\rory3.ASF
:FULLY-SPECIFIED
:DEGREES
426
root 5.67994 17.792 13.3542 -2.06442 187.31 1.15303
lowerback 13.328 0.0629073 -1.93131
upperback 0.494915 -0.210672 1.60411
thorax -6.95202 -0.0618984 2.84072
lowerneck -18.6564 -6.16681 -12.8323
upperneck 29.4098 -9.64314 9.57464
head 14.3218 -4.94014 4.1736
rclavicle 1.99033e-014 8.15017e-015
rhumerus -44.1622 -29.4392 -65.9295
rradius 32.4241
rwrist 7.74583
rhand -17.248 6.49985
rfingers 7.12502
rthumb 8.99604 -23.2883
lclavicle 1.99033e-014 8.15017e-015
lhumerus -34.1194 5.45425 81.0042
lradius 33.3757
lwrist -1.80911
lhand -19.0232 25.2493
lfingers 7.12502
lthumb 7.28277 55.104
rfemur -5.54241 2.07895 3.37856
rtibia 30.3998
rfoot -7.50075 -6.58046
rtoes 7.41293
lfemur -3.37339 -6.15354 -12.9309
ltibia 22.6444
lfoot -14.8322 -1.97106
ltoes -10.6094
427
root 5.77168 17.7811 13.3422 -2.1232 187.323 1.24798
lowerback 13.2781 0.101575 -1.81592
upperback 0.48801 -0.139016 1.63144
thorax -6.93601 -0.0303991 2.79007
lowerneck -18.5726 -6.15359 -12.7898
upperneck 29.3178 -9.63691 9.59685
head 14.2609 -4.92909 4.17653
rclavicle -3.8266e-015 -1.78906e-015
rhumerus -44.2017 -29.3134 -65.8739
rradius 32.6302
rwrist 7.69898
rhand -17.2445 6.35693
rfingers 7.12502
rthumb 8.99942 -23.4311
lclavicle -3.8266e-015 -1.78906e-015
lhumerus -34.1838 5.19971 80.9682
lradius 33.4193
lwrist -1.8835
lhand -19.1827 25.4228
lfingers 7.12502
lthumb 7.12879 55.2827
rfemur -4.75127 3.07398 3.04229
rtibia 28.9868
rfoot -7.12867 -7.75944
rtoes 7.14375
lfemur -3.37025 -6.213 -12.5052
ltibia 22.6595
lfoot -14.9535 -1.93986
ltoes -10.4418
428
root 5.86651 17.7657 13.3322 -2.1577 187.398 1.27235
lowerback 13.2125 0.141019 -1.75912
upperback 0.516708 -0.077969 1.63838
thorax -6.87231 -0.00406709 2.75257
lowerneck -18.6564 -6.19362 -12.85
upperneck 29.3013 -9.69935 9.72755
head 14.2941 -4.9405 4.22749
rclavicle -2.82647e-014 6.75868e-015
rhumerus -44.1359 -29.3989 -65.7805
rradius 32.7082
rwrist 7.66593
rhand -17.3009 6.56534
rfingers 7.12502
rthumb 8.94501 -23.225
lclavicle -2.82647e-014 6.75868e-015
lhumerus -34.1164 4.75989 81.0081
lradius 33.4043
lwrist -1.80211
lhand -19.2145 25.4782
lfingers 7.12502
lthumb 7.09808 55.3392
rfemur -3.96382 3.92964 2.6535
rtibia 27.6595
rfoot -6.97319 -8.882
rtoes 6.15247
lfemur -3.38058 -6.31278 -12.1346
ltibia 22.6672
lfoot -15.01 -1.89161
ltoes -11.4464
429
root 5.96281 17.7469 13.317 -2.23467 187.512 1.20383
lowerback 13.1842 0.143341 -1.80046
upperback 0.533171 -0.0814207 1.63327
thorax -6.83868 -0.00525771 2.77077
lowerneck -18.8048 -6.21506 -12.8352
upperneck 29.4267 -9.6969 9.62854
head 14.3744 -4.9469 4.18448
rclavicle -6.68413e-015 -1.2921e-014
rhumerus -44.0912 -29.388 -65.6778
rradius 32.7655
rwrist 7.68168
rhand -17.3467 6.84836
rfingers 7.12502
rthumb 8.90075 -22.9439
lclavicle -6.68413e-015 -1.2921e-014
lhumerus -34.1276 4.54316 80.9348
lradius 33.4035
lwrist -1.88438
lhand -19.034 25.5325
lfingers 7.12502
lthumb 7.27236 55.3875
rfemur -3.116 4.61989 2.20297
rtibia 26.4171
rfoot -6.57146 -9.7154
rtoes 4.69374
lfemur -3.30878 -6.48906 -11.8618
ltibia 22.6874
lfoot -14.9896 -1.86889
ltoes -11.6201
430
root 6.06146 17.7315 13.2968 -2.35549 187.446 1.18607
lowerback 13.1411 0.172831 -1.83375
upperback 0.529167 -0.0450645 1.64718
thorax -6.82104 0.0138302 2.79717
lowerneck -18.666 -6.15916 -12.8617
upperneck 29.3765 -9.6166 9.62455
head 14.3108 -4.9211 4.20458
rclavicle -2.10339e-014 4.17448e-015
rhumerus -44.078 -29.1163 -65.6526
rradius 32.8224
rwrist 7.56825
rhand -17.3695 6.73481
rfingers 7.12502
rthumb 8.87881 -23.0584
lclavicle -2.10339e-014 4.17448e-015
lhumerus -34.2744 4.47815 80.779
lradius 33.4229
lwrist -2.04338
lhand -18.8826 25.7327
lfingers 7.12502
lthumb 7.41847 55.5826
rfemur -2.357 5.31029 1.84695
rtibia 25.2948
rfoot -5.97857 -9.90847
rtoes 4.5525
lfemur -3.12842 -6.59068 -11.528
ltibia 22.6958
lfoot -14.9367 -1.81013
ltoes -11.279
431
root 6.16142 17.7158 13.2808 -2.45458 187.346 1.22991
lowerback 13.1362 0.197307 -1.77313
upperback 0.495352 -0.00139156 1.64802
thorax -6.85698 0.0348451 2.75564
lowerneck -18.4876 -6.12644 -12.9376
upperneck 29.2965 -9.62526 9.79088
head 14.2529 -4.9216 4.28592
rclavicle -2.62644e-014 1.31198e-014
rhumerus -44.0774 -28.9115 -65.6222
rradius 32.8544
rwrist 7.55997
rhand -17.4375 6.67818
rfingers 7.12502
rthumb 8.81317 -23.1178
lclavicle -2.62644e-014 1.31198e-014
lhumerus -34.4413 4.46726 80.5543
lradius 33.3839
lwrist -2.20183
lhand -18.903 25.6279
lfingers 7.12502
lthumb 7.39883 55.4785
rfemur -1.69316 5.97496 1.57074
rtibia 24.2665
rfoot -5.23645 -9.61106
rtoes 5.03753
lfemur -2.99241 -6.77699 -11.1561
ltibia 22.7085
lfoot -14.9249 -1.47083
ltoes -12.0538
432
root 6.26589 17.6942 13.2707 -2.51976 187.337 1.25155
lowerback 13.1344 0.200558 -1.73353
upperback 0.480995 0.00979986 1.65072
thorax -6.87189 0.039708 2.73401
lowerneck -18.4313 -6.11011 -12.9377
upperneck 29.2743 -9.60062 9.77675
head 14.2261 -4.91467 4.28532
rclavicle 1.49958e-014 -3.97569e-016
rhumerus -44.0158 -28.8995 -65.5589
rradius 32.8756
rwrist 7.71727
rhand -17.2725 6.79205
rfingers 7.12502
rthumb 8.97236 -22.9972
lclavicle 1.49958e-014 -3.97569e-016
lhumerus -34.4876 4.41007 80.3706
lradius 33.3199
lwrist -2.27989
lhand -19.036 25.4116
lfingers 7.12502
lthumb 7.27041 55.2667
rfemur -1.08586 6.37852 1.31341
rtibia 23.3082
rfoot -4.30893 -9.04425
rtoes 4.56495
lfemur -2.97344 -6.93278 -10.7679
ltibia 22.7466
lfoot -14.8976 -1.26159
ltoes -13.2653
